<?xml version="1.0" ?><svg enable-background="new 0 0 515.91 728.5" height="512" id="Layer_1" version="1.1" viewBox="0 0 512.00003 512" width="512" xml:space="preserve" xmlns="http://www.w3.org/2000/svg" xmlns:cc="http://creativecommons.org/ns#" xmlns:dc="http://purl.org/dc/elements/1.1/" xmlns:inkscape="http://www.inkscape.org/namespaces/inkscape" xmlns:rdf="http://www.w3.org/1999/02/22-rdf-syntax-ns#" xmlns:sodipodi="http://sodipodi.sourceforge.net/DTD/sodipodi-0.dtd" xmlns:svg="http://www.w3.org/2000/svg"><defs id="defs7"/><g id="g4083" transform="translate(150.85172,149.13018)"><path d="m -733.62329,72.267944 c 0,203.804876 -165.21649,369.021366 -369.02141,369.021366 -203.8048,0 -369.0213,-165.21649 -369.0213,-369.021366 0,-203.804874 165.2165,-369.021364 369.0213,-369.021364 203.80492,0 369.02141,165.21649 369.02141,369.021364 z" id="path4944" style="fill:#ff3300;fill-opacity:1;fill-rule:nonzero;stroke:none" transform="matrix(0.69372682,0,0,0.69372682,870.08246,56.735607)"/><g id="g7898" style="fill:#ffffff;fill-opacity:1" transform="matrix(1.0193461,0,0,1.0193461,242.03416,-717.78373)"><path d="m 31.065074,662.72069 c 17.94119,17.93279 -31.79568018,96.76325 -40.2040402,105.17161 -8.4083598,8.39577 -29.7649198,0.67133 -47.7019098,-17.26567 -17.94119,-17.93279 -25.66983,-39.29355 -17.26147,-47.70191 8.40836,-8.41255 87.23043,-58.14522 105.16742,-40.20403 z" id="path123" style="fill:#ffffff;fill-opacity:1"/><path d="m -220.52275,681.69404 c -27.3901,-15.5412 -66.36058,-32.82784 -78.75913,-20.42929 -12.56638,12.55799 5.35802,52.40958 21.05866,79.85003 13.97197,-24.2978 33.85581,-44.75227 57.70047,-59.42074 z" id="path125" style="fill:#ffffff;fill-opacity:1"/><path d="m 3.7043438,761.70771 c 2.52166,8.55521 2.06432,15.62511 -2.02237,19.70342 -9.55801,9.558 -35.3662998,-0.61259 -58.6277398,-22.75795 -1.62797,-1.45594 -3.23496,-2.96643 -4.81677,-4.55243 -8.40836,-8.41675 -14.95798,-17.37896 -19.14118,-25.62368 -8.14822,-14.61393 -10.18737,-27.52856 -4.02796,-33.68378 3.35663,-3.35663 8.72724,-4.27131 15.27687,-3.0881 4.2755,-2.69789 9.31464,-5.71047 14.84469,-8.79437 -22.48522,-11.72723 -48.045964,-18.35238 -75.167534,-18.35238 -89.94091,0 -162.8595,72.90601 -162.8595,162.8595 0,89.93671 72.91859,162.85111 162.8595,162.85111 89.945104,0 162.863694,-72.9144 162.863694,-162.85111 0,-29.04744 -7.62375,-56.28649 -20.94537,-79.90038 -2.8825102,5.24893 -5.6811002,10.06149 -8.2363302,14.19015 z" id="path127" style="fill:#ffffff;fill-opacity:1"/></g></g></svg>