<?xml version="1.0" encoding="UTF-8"?>
<!-- Generator: Adobe Illustrator 18.1.1, SVG Export Plug-In . SVG Version: 6.00 Build 0)  -->
<svg version="1.1" id="Ebene_1" xmlns:dc="http://purl.org/dc/elements/1.1/" xmlns:cc="http://creativecommons.org/ns#" xmlns:rdf="http://www.w3.org/1999/02/22-rdf-syntax-ns#" xmlns:svg="http://www.w3.org/2000/svg" xmlns="http://www.w3.org/2000/svg" xmlns:xlink="http://www.w3.org/1999/xlink" x="0px" y="0px" viewBox="-221 313 168 168" enable-background="new -221 313 168 168" xml:space="preserve">
<path id="path3" fill="#3D9941" d="M-137.2,313.3c-46.2,0-83.6,37.4-83.6,83.6c0,46.2,37.5,83.6,83.6,83.6  c46.2,0,83.6-37.5,83.6-83.6C-53.6,350.7-91,313.3-137.2,313.3z M-136.8,324.9c39.8,0,72.1,32.3,72.1,72.1  c0,39.8-32.3,72.1-72.1,72.1c-21.5,0-40.8-9.4-54-24.3c5.4-4.2,14.5-3.2,25.7-1.9c5.4,0.6,11.5,1.3,17.8,1.4  c17.6,0.1,36.6-3.1,48.3-8.2c7.6-3.3,12.4-5.5,15.4-8.3c1.1-0.9,1.7-2.4,2.2-3.9l0.4-1c0.5-1.3,1.2-4,1.5-5.4  c0.1-0.6,0.2-1.3-0.2-1.7l-1.6,0.3c-5.1,3.1-18,8.9-30,9.2c-14.9,0.3-44.9-15-48-16.6l-0.3-0.4c-0.8-1.8-5.2-12.5-6.2-14.7  c21.6,14.2,39.5,22.1,53.2,23.3c15.3,1.4,27.2-7,32.3-10.5c1-0.7,1.8-1.2,2.1-1.3l0.3-0.6c-0.8-5.4-8.9-31.3-14.9-37.6  c-1.7-1.7-3-3.4-5.7-5c-21.8-12.7-73.6-20.4-76.1-20.7l-0.4,0.1l-0.2,0.3c0,0-0.2,10.8-0.2,12c-1.8-0.6-7.3-2.4-15.2-4.6  C-180.2,336.2-164.4,324.9-136.8,324.9z M-117.8,363c0.4,0,0.7,0,1.1,0c12.2,0.4,21.8,10.7,21.4,23c-0.2,5.9-2.7,11.4-7,15.4  c-4.3,4.1-10,6.2-15.9,6c-12.2-0.5-21.8-10.8-21.4-23c0.2-5.9,2.7-11.4,7.1-15.4C-128.5,365.2-123.3,363.1-117.8,363z M-118.4,369.6  c-3.6,0.2-6.9,1.7-9.6,4.1c-3,2.8-4.8,6.6-4.9,10.8c-0.3,8.5,6.4,15.7,14.9,16c4.1,0.1,8.1-1.3,11.1-4.1c3-2.8,4.8-6.7,4.9-10.8  c0.3-8.5-6.4-15.7-14.9-16C-117.4,369.5-117.8,369.5-118.4,369.6L-118.4,369.6z M-114.3,377.3c3.8,0,6.8,2.1,6.8,4.6  c0,2.5-3.1,4.6-6.8,4.6c-3.8,0-6.9-2.1-6.9-4.6C-121.2,379.3-118.1,377.3-114.3,377.3z"/>
</svg>