<?xml version="1.0" encoding="UTF-8" standalone="no"?>
<svg
   xmlns:dc="http://purl.org/dc/elements/1.1/"
   xmlns:cc="http://creativecommons.org/ns#"
   xmlns:rdf="http://www.w3.org/1999/02/22-rdf-syntax-ns#"
   xmlns:svg="http://www.w3.org/2000/svg"
   xmlns="http://www.w3.org/2000/svg"
   xmlns:xlink="http://www.w3.org/1999/xlink"
   xmlns:sodipodi="http://sodipodi.sourceforge.net/DTD/sodipodi-0.dtd"
   xmlns:inkscape="http://www.inkscape.org/namespaces/inkscape"
   version="1.0"
   width="654.57117"
   height="414.10956"
   id="svg2"
   inkscape:version="0.91pre2 r13516"
   sodipodi:docname="opensuse-logo.svg">
  <metadata
     id="metadata29">
    <rdf:RDF>
      <cc:Work
         rdf:about="">
        <dc:format>image/svg+xml</dc:format>
        <dc:type
           rdf:resource="http://purl.org/dc/dcmitype/StillImage" />
        <dc:title></dc:title>
      </cc:Work>
    </rdf:RDF>
  </metadata>
  <defs
     id="defs27" />
  <sodipodi:namedview
     pagecolor="#ffffff"
     bordercolor="#666666"
     borderopacity="1"
     objecttolerance="10"
     gridtolerance="10"
     guidetolerance="10"
     inkscape:pageopacity="0"
     inkscape:pageshadow="2"
     inkscape:window-width="1600"
     inkscape:window-height="853"
     id="namedview25"
     showgrid="false"
     fit-margin-top="0"
     fit-margin-left="0"
     fit-margin-right="0"
     fit-margin-bottom="0"
     inkscape:zoom="0.91588785"
     inkscape:cx="326.78563"
     inkscape:cy="207.05507"
     inkscape:window-x="-4"
     inkscape:window-y="-4"
     inkscape:window-maximized="1"
     inkscape:current-layer="svg2" />
  <path
     d="m 572.67162,104.49711 c -14.38915,-0.52839 -25.68409,-12.658121 -25.20351,-27.067873 0.22161,-6.976443 3.20379,-13.42487 8.2716,-18.185881 5.08834,-4.75964 11.73429,-7.237156 18.71076,-6.974703 14.40973,0.504272 25.70781,12.613797 25.22375,27.045525 -0.21818,6.954466 -3.15947,13.402525 -8.24786,18.184142 -5.11208,4.73903 -11.75806,7.21692 -18.75511,6.99879 l 3.7e-4,0 z m 6.05617,-23.669692 c 6.40405,0 11.60133,-3.464479 11.60133,-7.719452 0,-4.277318 -5.19759,-7.743563 -11.60133,-7.743563 -6.40727,0 -11.58428,3.466245 -11.58428,7.743563 0,4.254973 5.17701,7.719452 11.58428,7.719452"
     style="fill:#73ba25;fill-rule:nonzero"
     id="path4"
     inkscape:connector-curvature="0" />
  <path
     d="m 276.63743,254.57713 0.92605,-0.087 0.15019,-1.09656 c -0.23715,-0.86098 -0.7956,-1.63469 -1.65832,-12.308 -0.73229,-9.44631 -2.2167,-35.35127 10.8219,-48.19743 5.05814,-5.01335 12.78115,-9.46792 18.87247,-10.90886 24.98058,-6.08963 57.40649,-1.87229 85.09816,30.14592 14.28881,16.54555 21.30311,24.09805 24.8101,27.47631 l 1.2037,1.11842 1.4642,1.05479 c 1.14,0.64531 47.5939,22.03333 47.5939,22.03333 l 0.94625,-0.23715 0.0237,-1.00956 c -0.30089,-0.34441 -29.43381,-37.97913 -24.27159,-68.984 4.08862,-24.70127 23.75365,-22.48491 50.93074,-19.38737 8.88623,1.01129 18.99948,2.17322 29.45711,2.41046 29.19627,0.17233 60.65614,-5.18515 80.0435,-13.66369 12.54386,-5.4861 20.54759,-9.10196 25.56225,-13.66371 1.80518,-1.48441 2.75143,-3.9366 3.72092,-6.51929 l 0.66862,-1.74185 c 0.81579,-2.08795 1.99931,-6.56277 2.51762,-8.99477 0.23716,-1.07498 0.34436,-2.23826 -0.41117,-2.81821 l -2.6881,0.49475 c -8.49838,5.09991 -29.7813,14.82559 -49.70375,15.21316 -24.67971,0.51486 -74.42662,-24.8317 -79.61213,-27.5215 l -0.49471,-0.57995 c -1.25021,-2.97051 -8.71575,-20.635914 -10.28709,-24.356864 35.80591,23.581444 65.49683,36.621754 88.2409,38.644294 25.3048,2.25846 45.03657,-11.55416 53.47128,-17.45175 1.6549,-1.11843 2.90514,-2.02255 3.42003,-2.21496 l 0.53816,-0.88256 c -1.40085,-8.88626 -14.63323,-51.920126 -24.61597,-62.249031 -2.77475,-2.8401 -4.99142,-5.593243 -9.46792,-8.219376 C 567.73825,18.989381 481.8643,6.2500207 477.8424,5.6700807 l -0.68878,0.19375 -0.25745,0.60185 c 0,0 -0.32417,17.8160003 -0.3677,19.7968103 C 467.74904,23.335441 403.99747,2.7430207 344.2205,0.65677071 293.551,-1.1288993 224.3298,-3.5393593 126.51379,56.578561 l -2.88357,1.806891 C 77.62753,87.088756 45.86848,122.46333 29.25787,163.6033 c -5.20708,12.93142 -12.22105,42.13111 -5.29403,69.60742 3.0123,12.029 8.58534,24.07786 16.11763,34.87985 16.97691,24.39897 45.48609,40.60358 76.19038,43.3348 43.33476,3.87157 76.17017,-15.59933 87.85305,-52.05055 8.02525,-25.15279 0,-62.05354 -30.76935,-80.88085 -25.0241,-15.34188 -51.96359,-11.83487 -67.56325,-1.52786 -13.55518,8.9934 -21.23603,22.93611 -21.08575,38.27831 0.30093,27.17541 23.73346,41.6347 40.56007,41.6566 4.90444,0 9.81059,-0.83909 15.36206,-2.64598 1.95925,-0.60356 3.82983,-1.33379 5.87399,-2.60423 l 0.62511,-0.40773 0.40773,-0.23715 -0.1502,0.0651 c 3.85138,-2.58265 6.17488,-6.84179 6.17488,-11.40388 0,-1.24852 -0.19368,-2.51759 -0.53816,-3.78769 -1.97912,-6.86367 -8.77946,-11.03758 -15.8369,-9.74727 l -0.94626,0.19368 -1.29065,0.42964 -1.87227,0.62512 c -3.87297,0.96783 -6.80002,1.03324 -7.40185,1.05308 -1.97911,-0.12886 -11.68462,-3.03214 -11.68462,-13.662 l 0,-0.12859 c 0.0237,-3.89489 1.59295,-6.62782 2.45394,-8.11224 2.9904,-4.73395 11.25326,-9.38096 22.41953,-8.39157 14.63321,1.24715 25.17608,8.75756 32.1685,22.91592 6.4991,13.1673 4.79935,29.3486 -4.36796,41.22527 -9.10198,11.77154 -25.30313,16.76293 -46.86371,14.4158 C 98.06734,274.30911 79.69297,261.80735 69.40755,242.33476 59.3378,223.31335 58.77772,200.74183 67.96662,183.40067 c 22.0118,-41.5279 63.55952,-41.09825 86.34707,-37.15991 33.73815,5.83051 64.35685,32.83366 77.97709,68.74676 2.17319,5.72365 3.2913,10.2635 4.25911,14.39426 l 1.4642,6.21836 38.10445,18.6116 0.51829,0.36596 0.001,-3.4e-4 z M 547.49159,51.888044 c -7.18448,6.669562 -11.29674,15.771528 -11.64114,25.583828 -0.66515,20.224763 15.21487,37.266708 35.43826,38.020888 9.8558,0.32248 19.19324,-3.14273 26.35785,-9.85578 7.16461,-6.691508 11.27656,-15.771523 11.64112,-25.562269 0.6888,-20.246634 -15.19155,-37.310161 -35.45808,-38.040759 -9.8123,-0.322453 -19.1734,3.141051 -26.33801,9.854092"
     style="fill:#73ba25;fill-rule:evenodd"
     id="path6"
     inkscape:connector-curvature="0" />
  <path
     d="m 653.45552,304.74149 -0.42562,0 c -0.49196,0 -0.91842,-0.42648 -0.91842,-0.91842 l 0,-6.59114 -1.44318,2.19701 c -0.16363,0.22925 -0.45924,0.32743 -0.72116,0.32743 l -0.16469,0 c -0.26193,0 -0.55742,-0.0983 -0.72114,-0.32743 l -1.4759,-2.19701 0,6.59114 c 0,0.49194 -0.42649,0.91842 -0.95118,0.91842 l -0.42567,0 c -0.49194,0 -0.91843,-0.42648 -0.91843,-0.91842 l 0,-7.8706 -4.4277,0 0,7.8706 c 0,0.49194 -0.45921,0.91842 -0.98306,0.91842 l -0.39376,0 c -0.49197,0 -0.91845,-0.42648 -0.91845,-0.91842 l 0,-7.8706 -3.31194,0 c -0.49194,0 -0.88567,-0.32828 -0.88567,-0.85215 l 0,-0.45919 c 0,-0.52472 0.39373,-0.85297 0.88567,-0.85297 l 11.60902,0 c 0.45924,0 0.75392,0.16364 0.91848,0.42648 l 2.19701,3.31194 2.19707,-3.31194 c 0.16364,-0.23004 0.42649,-0.42648 0.91845,-0.42648 l 1.4759,0 0,10.10039 c 0,0.49194 -0.45924,0.91843 -0.98393,0.91843"
     style="fill:#73ba25"
     id="path8"
     inkscape:connector-curvature="0" />
  <path
     d="m 273.86384,290.93544 c -15.87216,0 -24.66118,13.44505 -24.66118,22.7588 l 0,11.93729 c 0,13.6751 11.18253,22.16863 21.57842,22.16863 l 36.4012,0 c 4.55863,0 5.50981,2.98368 5.50981,5.50895 l 0,7.70688 c 0,0.8194 -0.13096,8.23163 -5.50981,8.23163 l -49.68254,0 c -4.91967,0 -8.49353,3.41017 -8.49353,8.09974 l 0,2.13161 c 0,4.65685 3.54114,8.10062 8.49353,8.10062 l 52.40511,0 c 13.6751,0 22.52963,-9.51104 22.52963,-24.2683 l 0,-12.88763 c 0,-13.83963 -9.96943,-20.03705 -19.8406,-20.03705 l -35.81099,0 c -5.41161,0 -7.83785,-4.00121 -7.83785,-6.88669 l 0,-7.08392 c 0,-4.49232 2.98369,-7.05036 8.23074,-7.05036 l 39.68119,0 c 4.85337,0 8.49356,-3.47647 8.49356,-8.10061 l 0,-2.13159 c 0,-4.59136 -3.7057,-8.0998 -8.65722,-8.0998 l -42.76399,0"
     id="S"
     style="fill:#73ba25"
     inkscape:connector-curvature="0" />
  <path
     d="m 422.84762,290.93544 c -4.68962,0 -8.4935,3.8039 -8.4935,8.4935 l 0,60.9969 c 0,4.85329 -3.96844,8.78902 -8.78905,8.78902 l -27.67844,0 c -4.85335,0 -8.78908,-3.93573 -8.78908,-8.78902 l 0,-60.9969 c 0,-4.6896 -3.77112,-8.4935 -8.4935,-8.4935 l -2.68901,0 c -4.72235,0 -8.49353,3.73842 -8.49353,8.4935 l 0,63.3249 c 0,14.72454 11.57629,25.41592 27.54666,25.41592 l 29.58083,0 c 15.97037,0 27.54664,-10.69138 27.54664,-25.41592 l 0,-63.3249 c 0,-4.75508 -3.7384,-8.4935 -8.4935,-8.4935 l -2.68904,0"
     style="fill:#73ba25"
     id="path11"
     inkscape:connector-curvature="0" />
  <use
     transform="translate(201.99503,7.1160696e-7)"
     xlink:href="#S"
     id="use13"
     x="0"
     y="0"
     width="100%"
     height="100%" />
  <path
     d="m 559.59864,290.93544 c -4.68879,0 -8.29625,3.47565 -8.29625,8.09974 l 0,80.44379 c 0,4.59137 3.47566,8.10062 8.13253,8.10062 l 64.11236,0 c 4.91965,0 8.49438,-3.41102 8.49438,-8.10062 l 0,-2.13161 c 0,-4.65684 -3.54198,-8.09974 -8.49438,-8.09974 0,0 -50.14174,0 -52.50334,0 0,-2.09883 0,-18.39748 0,-20.49631 2.3616,0 38.46811,0 38.46811,0 4.9188,0 8.49351,-3.41099 8.49351,-8.13337 l 0,-2.0988 c 0,-4.68963 -3.57471,-8.13253 -8.49351,-8.13253 0,0 -36.10651,0 -38.46811,0 0,-2.0988 0,-18.95492 0,-21.05372 2.3616,0 49.84707,0 49.84707,0 4.91966,0 8.49437,-3.41099 8.49437,-8.10062 l 0,-2.13156 c 0,-4.68962 -3.57471,-8.09977 -8.49437,-8.09977 l -61.25878,0"
     style="fill:#73ba25"
     id="path15"
     inkscape:connector-curvature="0" />
  <path
     d="M 14.52781,329.20542 C 6.52603,329.20542 0,335.43638 0,343.14326 L 0,373.478 c 0,7.8051 6.29647,14.16707 14.03593,14.16707 l 19.61083,0 c 7.73946,0 14.06867,-6.36197 14.06867,-14.16707 l 0,-30.33474 c 0,-7.67413 -6.52601,-13.93784 -14.52781,-13.93784 l -18.65981,0 z m -4.23048,43.09136 0,-27.67762 c 0,-3.2473 2.65636,-5.90358 5.90299,-5.90358 l 15.28205,0 c 3.18106,0 5.9029,2.68985 5.9029,5.90358 l 0,27.67762 c 0,3.24733 -2.65628,5.90355 -5.9029,5.90355 l -15.41327,0 c -3.24663,0 -5.77177,-2.59074 -5.77177,-5.90355"
     style="fill:#73ba25"
     id="path17"
     inkscape:connector-curvature="0" />
  <path
     d="m 92.18455,328.84523 c -5.67353,0 -9.90408,2.03335 -13.3475,3.67294 -2.066,0.98312 -3.86965,1.83606 -5.27981,1.83606 -0.59028,0 -1.1478,-0.26192 -1.44298,-0.72116 l -1.27894,-2.49256 c -0.29518,-0.65569 -1.60694,-1.93509 -3.24663,-1.93509 l -1.90204,0 c -1.83647,0 -3.34502,1.64041 -3.34502,3.70564 l 0,76.90263 c 0,2.39349 1.8693,4.29587 4.29604,4.29587 l 1.67251,0 c 2.36118,0 4.29604,-1.93511 4.29604,-4.29587 l 0,-25.51415 c 0,-0.7539 0.49189,-1.54139 0.95102,-1.54139 1.41016,0 3.21381,0.78749 5.31264,1.77143 3.41059,1.54135 7.67389,3.50838 13.34743,3.50838 l 1.77055,0 c 10.00216,0 16.23316,-5.70545 16.23316,-14.88821 l 0,-29.35081 c 0,-9.05098 -6.36197,-14.92098 -16.23316,-14.92098 l -1.80331,0 0,0 0,-0.0327 z m -19.61116,42.86135 0,-26.46449 c 0,-3.64019 2.85314,-6.49375 6.49328,-6.49375 l 14.29826,0 c 3.64021,0 6.49293,2.85356 6.49293,6.49375 l 0,26.46449 c 0,3.57471 -2.88547,6.49375 -6.49293,6.49375 l -14.29826,0 c -3.57458,0 -6.49328,-2.91904 -6.49328,-6.49375"
     style="fill:#73ba25"
     id="path19"
     inkscape:connector-curvature="0" />
  <path
     d="m 139.27631,329.20542 c -8.00156,0 -14.52722,6.23096 -14.52722,13.93784 l 0,30.1047 c 0,7.80509 6.32919,14.42984 13.80606,14.42984 l 20.23433,0 c 2.49174,0 4.29589,-1.70592 4.29589,-4.06668 l 0,-1.31221 c 0,-2.36075 -1.80415,-4.0658 -4.29589,-4.0658 l -16.59415,0 c -4.65687,0 -7.11668,-2.26339 -7.11668,-6.62474 0,0 0,-7.5751 0,-8.78905 1.34494,0 29.97456,0 29.97456,0 4.78785,0 7.67333,-2.95093 7.67333,-7.93605 l 0,-11.6745 c 0,-7.67416 -6.52568,-13.93705 -14.52724,-13.93705 l -18.88941,0 -0.0335,-0.0664 z m -4.23041,15.28196 c 0,-3.21375 2.52532,-5.7718 5.77177,-5.7718 l 15.77393,0 c 3.24729,0 5.77177,2.52529 5.77177,5.7718 0,0 0,8.16607 0,9.37923 -1.27859,0 -26.03801,0 -27.31747,0 0,-1.21316 0,-9.37923 0,-9.37923"
     style="fill:#73ba25"
     id="path21"
     inkscape:connector-curvature="0" />
  <path
     d="m 214.44108,328.84523 c -5.64078,0 -9.90392,2.0006 -13.31494,3.64021 -2.13155,0.98312 -3.96761,1.86879 -5.44352,1.86879 -0.65565,0 -0.91842,-0.0653 -1.41039,-0.9512 l -1.18038,-2.16431 c -0.65568,-1.34407 -1.8033,-2.0333 -3.37744,-2.0333 l -1.67319,0 c -1.99975,0 -3.4429,1.54133 -3.4429,3.70564 l 0,50.43727 c 0,2.39435 1.90155,4.32947 4.29587,4.32947 l 1.67235,0 c 2.3616,0 4.29587,-1.93512 4.29587,-4.32947 l 0,-38.17172 c 0,-3.57471 2.91904,-6.49375 6.49377,-6.49375 l 14.29803,0 c 3.5747,0 6.49293,2.91904 6.49293,6.49375 l 0,38.17172 c 0,2.39435 1.90236,4.32947 4.29672,4.32947 l 1.67234,0 c 2.36076,0 4.29587,-1.93512 4.29587,-4.32947 l 0,-39.58214 c 0,-9.05095 -6.36197,-14.92096 -16.23317,-14.92096 l -1.8033,0"
     style="fill:#73ba25"
     id="path23"
     inkscape:connector-curvature="0" />
</svg>
